Coordinates
version=1
nRows=12
nColumns=42
inDegrees=yes

Units are S.I. units (second, meters, Newtons, ...)
If the header above contains a line with 'inDegrees', this indicates whether rotational values are in degrees (yes) or radians (no).

endheader
time	pelvis_tilt	pelvis_list	pelvis_rotation	pelvis_tx	pelvis_ty	pelvis_tz	hip_flexion_r	hip_adduction_r	hip_rotation_r	knee_angle_r	knee_adduction_r	knee_angle_r_beta	ankle_angle_r	subtalar_angle_r	mtp_angle_r	hip_flexion_l	hip_adduction_l	hip_rotation_l	knee_angle_l	knee_adduction_l	knee_angle_l_beta	ankle_angle_l	subtalar_angle_l	mtp_angle_l	lumbar_extension	lumbar_bending	lumbar_rotation	arm_flex_r	arm_add_r	arm_rot_r	elbow_flex_r	pro_sup_r	wrist_flex_r	wrist_dev_r	arm_flex_l	arm_add_l	arm_rot_l	elbow_flex_l	pro_sup_l	wrist_flex_l	wrist_dev_l
      1.98000000	     15.34667526	     -1.67030712	     -1.68247436	      1.00966882	      0.86508121	     -0.19757631	     -0.32424813	      0.28288519	     -6.06808788	     61.21417741	     -5.64421601	      1.06838894	     13.69065439	    -15.71925273	     -7.50075518	    -15.61755475	     -0.97697754	     -3.53617402	      6.98126535	      6.77586346	      0.12184607	     15.20497853	     -1.81155172	     -7.50075518	    -26.65149114	      0.90379794	      5.63571102	      0.87932393	     -8.39188939	     -1.27725071	     29.74924882	     90.00000001	      0.00000000	      0.00000000	     11.65881927	     -6.15694318	     -3.05588842	     27.71617350	     90.00000001	      0.00000000	      0.00000000
      1.99000000	     15.29092769	     -1.87723331	     -1.22441178	      1.01981234	      0.86517353	     -0.19876433	      1.02667034	      0.66003799	     -5.78968901	     59.88826221	     -4.88467472	      1.04524736	     14.48667353	    -16.06444593	     -7.50073297	    -16.67629633	     -1.24060404	     -3.59177567	      6.19461431	      6.80151778	      0.10811642	     15.61131892	     -0.92182111	     -7.50073297	    -26.62839849	      1.31509018	      5.26948312	      0.01668129	     -8.24104410	     -1.91195960	     29.37030565	     90.00000001	      0.00000000	      0.00000000	     12.79520358	     -6.46780750	     -2.17374748	     28.65574251	     90.00000001	      0.00000000	      0.00000000
      2.00000000	     15.16105207	     -1.99677132	     -0.77788631	      1.02997035	      0.86490589	     -0.19995898	      2.41705035	      0.89669489	     -5.53281775	     58.34601626	     -4.13257500	      1.01833009	     15.20825178	    -16.34944246	     -7.50071487	    -17.59058386	     -1.39652556	     -3.73715597	      5.52953292	      6.75903832	      0.09650856	     16.01629967	     -0.11443509	     -7.50071487	    -26.51909357	      1.63770469	      4.87665438	     -0.89954383	     -8.11552170	     -2.41075804	     29.11195575	     90.00000001	      0.00000000	      0.00000000	     13.92327840	     -6.75304807	     -1.46540935	     29.57842035	     90.00000001	      0.00000000	      0.00000000
      2.01000000	     15.12506599	     -2.13154212	     -0.30567271	      1.04015412	      0.86458483	     -0.20103403	      3.55516524	      1.12570885	     -5.11676056	     56.42755243	     -3.19449423	      0.98484658	     15.71235949	    -16.59041833	     -7.50069613	    -18.63656609	     -1.62294477	     -3.80053011	      4.80610821	      6.80569762	      0.08388241	     16.46098779	      0.82889900	     -7.50069613	    -26.50010176	      1.96376399	      4.52348402	     -1.84068537	     -7.95766760	     -3.00220855	     28.95930199	     90.00000001	      0.00000000	      0.00000000	     15.04755312	     -7.05283557	     -0.62775485	     30.61343160	     90.00000001	      0.00000000	      0.00000000
      2.02000000	     15.21334616	     -2.39539853	      0.14481629	      1.05039769	      0.86428135	     -0.20178921	      4.39464902	      1.54703353	     -4.77743784	     54.06988130	     -2.40246446	      0.94369745	     15.62566548	    -16.89803163	     -7.50065187	    -19.79231609	     -2.11380953	     -4.14311896	      4.21210540	      7.07350905	      0.07351511	     16.80215793	      1.67011733	     -7.50065187	    -26.62599531	      2.38721933	      4.31130858	     -2.80487756	     -7.71405855	     -4.17320816	     28.94822977	     90.00000001	      0.00000000	      0.00000000	     16.05671843	     -7.55374028	      1.27870361	     31.92731881	     90.00000001	      0.00000000	      0.00000000
      2.03000000	     15.13567243	     -2.38401621	      0.58348097	      1.06056525	      0.86349330	     -0.20269951	      5.42046389	      1.55999631	     -4.50227922	     51.68145402	     -1.60041269	      0.90201153	     15.91122638	    -16.90008551	     -7.50062798	    -20.71356146	     -2.21378111	     -4.25802807	      3.65770271	      7.13242198	      0.06383896	     17.27265430	      2.62885427	     -7.50062798	    -26.55653541	      2.53177732	      3.93376172	     -3.74907458	     -7.54745629	     -4.56501772	     28.91440387	     90.00000001	      0.00000000	      0.00000000	     17.18044520	     -7.81148110	      1.80703925	     32.92866566	     90.00000001	      0.00000000	      0.00000000
      2.04000000	     15.05806898	     -2.39262719	      0.96413747	      1.07070106	      0.86252543	     -0.20358111	      6.36039007	      1.58206116	     -4.42088198	     49.05180910	     -1.00095187	      0.85611557	     16.13992402	    -16.92165437	     -7.50060907	    -21.61200677	     -2.32323570	     -4.41185274	      3.17636217	      7.18753134	      0.05543798	     17.77212995	      3.51255166	     -7.50060907	    -26.49950380	      2.68368288	      3.68182557	     -4.69998815	     -7.43316623	     -4.93302959	     28.89764054	     90.00000001	      0.00000000	      0.00000000	     18.32620368	     -7.98214751	      2.32110802	     33.94830066	     90.00000001	      0.00000000	      0.00000000
      2.05000000	     15.01937850	     -2.41534455	      1.31660862	      1.08084208	      0.86147576	     -0.20427912	      7.14104390	      1.64521961	     -4.43765953	     46.14987253	     -0.53166855	      0.80546723	     16.11188325	    -16.81897033	     -7.50059118	    -22.53215366	     -2.47029602	     -4.67034967	      2.76644685	      7.26959845	      0.04828361	     18.23584971	      4.36397972	     -7.50059118	    -26.48196745	      2.82577275	      3.42232915	     -5.57674140	     -7.30196659	     -5.31929471	     28.96007103	     90.00000001	      0.00000000	      0.00000000	     19.42594930	     -8.19869306	      2.89317489	     34.96179395	     90.00000001	      0.00000000	      0.00000000
      2.06000000	     15.03194203	     -2.53924812	      1.68838439	      1.09116749	      0.86036215	     -0.20469883	      7.70685118	      1.88256438	     -4.56361113	     42.95867497	     -0.20842800	      0.74977032	     15.81368806	    -16.70000038	     -7.50056706	    -23.48643169	     -2.84090864	     -5.13196223	      2.47151123	      7.54224644	      0.04313601	     18.67869906	      5.27841256	     -7.50056706	    -26.49985336	      3.05357243	      3.23023045	     -6.49233664	     -7.11478952	     -5.80767430	     29.07881233	     90.00000001	      0.00000000	      0.00000000	     20.48121970	     -8.45207074	      3.71128859	     36.03858413	     90.00000001	      0.00000000	      0.00000000
      2.07000000	     14.97803527	     -2.57770845	      1.99789270	      1.10136940	      0.85904177	     -0.20513543	      8.30412265	      1.98195214	     -4.78791898	     39.69841167	      0.06034201	      0.69286799	     15.52582690	    -16.41457346	     -7.50054162	    -24.32265818	     -3.07605484	     -5.61282792	      2.25847275	      7.76181290	      0.03941779	     19.16135290	      6.18143288	     -7.50054162	    -26.46290722	      3.17697159	      3.06131689	     -7.32127471	     -6.97250348	     -6.20394545	     29.18084271	     90.00000001	      0.00000000	      0.00000000	     21.53948674	     -8.64377985	      4.41122548	     37.04808094	     90.00000001	      0.00000000	      0.00000000
      2.08000000	     14.91354603	     -2.50949666	      2.26909595	      1.11164868	      0.85755511	     -0.20546436	      8.83274424	      1.92777098	     -5.05877926	     36.39806357	      0.35829521	      0.63526605	     15.33055767	    -15.87744648	     -7.50051984	    -25.14480044	     -3.15525498	     -5.99602733	      2.06494205	      7.88818368	      0.03604004	     19.67628540	      7.06598463	     -7.50051984	    -26.39871097	      3.16683887	      2.88265426	     -8.12328375	     -6.80076586	     -6.45621592	     29.22523638	     90.00000001	      0.00000000	      0.00000000	     22.58991731	     -8.79253594	      4.92045443	     37.96661377	     90.00000001	      0.00000000	      0.00000000
      2.09000000	     14.82855704	     -2.42959970	      2.51619213	      1.12194968	      0.85594912	     -0.20574643	      9.29935872	      1.86478520	     -5.34873255	     33.03648297	      0.60867788	      0.57659540	     15.10550838	    -15.07314706	     -7.50050026	    -25.92661119	     -3.23253958	     -6.43711146	      1.93135153	      8.04421053	      0.03370844	     20.16181919	      7.86799422	     -7.50050026	    -26.31733913	      3.13909428	      2.71802182	     -8.87714607	     -6.65998578	     -6.65297507	     29.27809004	     90.00000001	      0.00000000	      0.00000000	     23.60343958	     -8.91465731	      5.41577941	     38.84770083	     90.00000001	      0.00000000	      0.00000000
